# xmcd CD database file
#
# Track frame offsets:
#	150
#	14090
#	38632
#	53787
#	65687
#	98012
#	112887
#	126112
#	149512
#	163590
#	175172
#	189222
#	202220
#	216060
#	233012
#	244684
#	258337
#	281017
#	295200
#	305670
#
# Disc length: 4219 seconds
#
# Revision: 5
# Processed by: cddbd v1.5.2PL0 Copyright (c) Steve Scherf et al.
# Submitted via: CDex 1.51
#
DISCID=28107914
DTITLE=Various Artist - Greatest Blues of All Time  Disc 1
DYEAR=1998
DGENRE=Blues
TTITLE0=Albert King and Otis Rush - Howlin' For My Darling (aka Calling On My Darling)
TTITLE1=B. B. King - The Thrill Is Gone
TTITLE2=Big Joe Turner - Little Bittie Gal's Blues
TTITLE3=Bobby Bland - Turn On Your Love Light
TTITLE4=Buddy Guy - Stone Crazy
TTITLE5=Elmore James - Whose Muddy Shoes
TTITLE6=Howlin' Wolf - Worried About My Baby
TTITLE7=John Lee Hooker - Lonesome Mood
TTITLE8=Koko Taylor - I Got What It Takes
TTITLE9=Junior Parker - Stand By Me
TTITLE10=Muddy Waters - Rolling Stone
TTITLE11=T-Bone Walker - Why My Baby
TTITLE12=Willie Dixon - Walking The Blues
TTITLE13=B. B. King - No Money No Luck
TTITLE14=Bobby Bland - Two Steps From The Blues
TTITLE15=Little Milton - Hard Luck Blues
TTITLE16=Brownie McGhee and Sonny Terry - Brownie's New Blues
TTITLE17=B. B. King - Ask Me No Questions
TTITLE18=Little Milton - Ain't No Big Deal On You
TTITLE19=T-Bone Walker - They Call It Stormy Monday (aka "Stormy Monday Blues")
EXTD=YEAR: 1998
EXTT0=
EXTT1=
EXTT2=
EXTT3=
EXTT4=
EXTT5=
EXTT6=
EXTT7=
EXTT8=
EXTT9=
EXTT10=
EXTT11=
EXTT12=
EXTT13=
EXTT14=
EXTT15=
EXTT16=
EXTT17=
EXTT18=
EXTT19=
PLAYORDER=
